<svg id="Layer_1" data-name="Layer 1" xmlns="http://www.w3.org/2000/svg" viewBox="0 0 261.19 125.22"><defs><style>.cls-1{fill:#ffd34f;}.cls-2{fill:#1d1d1b;}</style></defs><path class="cls-1" d="M389.12,369.39a82.64,82.64,0,1,0-154.2,41.32H378A82.28,82.28,0,0,0,389.12,369.39Z" transform="translate(-174.68 -286.75)"/><path class="cls-2" d="M201.57,412l-2.37-7.87H187.65L185.22,412H174.68l14.48-43.7h8.48L212.17,412Zm-7.92-28.26c-.07.23-.16.6-.28,1.11s-.21.89-.27,1.16l-3.18,10.7h7.21l-3-10.7c-.06-.27-.14-.66-.22-1.16A11.12,11.12,0,0,0,193.65,383.71Z" transform="translate(-174.68 -286.75)"/><path class="cls-2" d="M238.86,412l-12.81-22.76c-.07-.17-.19-.56-.36-1.19a6.15,6.15,0,0,0-.4-1.18c0,.23.08.7.15,1.38s.1,1.14.1,1.34v18.87a3.11,3.11,0,0,1-1.21,2.55,4.33,4.33,0,0,1-2.82,1H215.3v-43.7h9.23l12.57,22.25a5.12,5.12,0,0,1,.45,1.19A7.5,7.5,0,0,0,238,393c0-.27,0-.7-.1-1.31s-.11-1-.11-1.26V368.27h10.3v40.16a3.11,3.11,0,0,1-1.21,2.55,4.34,4.34,0,0,1-2.83,1Z" transform="translate(-174.68 -286.75)"/><path class="cls-2" d="M278.07,412l-2.37-7.87H264.15L261.72,412H251.18l14.48-43.7h8.48L288.67,412Zm-7.92-28.26c-.07.23-.16.6-.28,1.11s-.21.89-.27,1.16l-3.18,10.7h7.21l-3-10.7c-.06-.27-.14-.66-.22-1.16A11.12,11.12,0,0,0,270.15,383.71Z" transform="translate(-174.68 -286.75)"/><path class="cls-2" d="M295.33,412a3.6,3.6,0,0,1-2.62-.89,3.44,3.44,0,0,1-.91-2.6V368.27H309q6.45,0,10,3.4a11.92,11.92,0,0,1,3.51,9,9.76,9.76,0,0,1-1.29,5.22,11.18,11.18,0,0,1-4.06,3.71,10.36,10.36,0,0,1,4.39,4.09,11.2,11.2,0,0,1,1.51,5.7,12.07,12.07,0,0,1-3.6,9.21q-3.61,3.4-9.82,3.41Zm16.85-31a5.14,5.14,0,0,0-1.11-3.55,3.49,3.49,0,0,0-2.72-1.24H302v9.69h6.31a3.45,3.45,0,0,0,2.72-1.29A5.36,5.36,0,0,0,312.18,380.93Zm.56,18a5.81,5.81,0,0,0-1.14-3.81,3.46,3.46,0,0,0-2.8-1.39H302v10.4h6.76a3.47,3.47,0,0,0,2.8-1.42A5.84,5.84,0,0,0,312.74,398.9Z" transform="translate(-174.68 -286.75)"/><path class="cls-2" d="M351.64,412l-2.37-7.87H337.72L335.29,412H324.75l14.48-43.7h8.48L362.24,412Zm-7.92-28.26c-.07.23-.16.6-.28,1.11s-.21.89-.27,1.16L340,396.68h7.21l-3-10.7c-.07-.27-.15-.66-.23-1.16A8.81,8.81,0,0,0,343.72,383.71Z" transform="translate(-174.68 -286.75)"/><path class="cls-2" d="M368.9,412a3.6,3.6,0,0,1-2.62-.89,3.44,3.44,0,0,1-.91-2.6V368.27h15.49a15.62,15.62,0,0,1,10.93,3.93,14.44,14.44,0,0,1,4.67,10.25c.1,1.65.16,4.11.2,7.39s0,5.86-.2,7.75q-.66,7.56-5.08,11A16.72,16.72,0,0,1,380.86,412Zm17.26-15.55a62.33,62.33,0,0,0,.23-6.43q0-4-.23-6.33a10.6,10.6,0,0,0-1.74-5.18,4.84,4.84,0,0,0-4.26-2.34h-4.55v28h4.55a5.06,5.06,0,0,0,3.91-2A10.25,10.25,0,0,0,386.16,396.42Z" transform="translate(-174.68 -286.75)"/><path class="cls-2" d="M425.27,412l-2.37-7.87H411.34L408.92,412H398.37l14.49-43.7h8.47L435.87,412Zm-7.92-28.26c-.07.23-.16.6-.28,1.11s-.21.89-.28,1.16l-3.18,10.7h7.22l-3-10.7c-.07-.27-.14-.66-.23-1.16S417.41,383.94,417.35,383.71Z" transform="translate(-174.68 -286.75)"/></svg>